<svg width="250" height="250" viewBox="0 0 250 250" fill="none" xmlns="http://www.w3.org/2000/svg">
<path d="M125 7.8125C60.2812 7.8125 7.8125 60.2812 7.8125 125C7.8125 189.719 60.2812 242.188 125 242.188C189.719 242.188 242.188 189.719 242.188 125C242.188 60.2812 189.719 7.8125 125 7.8125ZM125 232.422C65.7656 232.422 17.5781 184.234 17.5781 125C17.5781 65.7656 65.7656 17.5781 125 17.5781C184.23 17.5781 232.422 65.7656 232.422 125C232.422 184.234 184.23 232.422 125 232.422Z" fill="#111111"/>
<path d="M174.156 157.34C142.477 179.433 107.336 179.304 75.8438 157.34C72.0547 154.695 68.6367 159.273 71.207 163.504C80.8086 179.312 100.18 193.386 125 193.386C149.82 193.386 169.191 179.308 178.793 163.504C181.363 159.273 177.945 154.699 174.156 157.34Z" fill="#111111"/>
<path d="M106.531 108.565C108.402 110.538 112.148 106.909 111.43 104.901C104.168 84.9365 93.2265 74.9443 82.2851 74.9443C71.3437 74.9443 60.4023 84.9365 53.1444 104.901C52.4257 106.913 56.1679 110.538 58.0429 108.565C65.0819 101.14 73.4999 98.1826 82.289 98.1826C91.0741 98.1826 99.4921 101.14 106.531 108.565" fill="#111111"/>
<path d="M167.715 74.9443C156.774 74.9443 145.832 84.9365 138.571 104.901C137.852 106.913 141.598 110.538 143.469 108.565C150.512 101.14 158.926 98.1826 167.715 98.1826C176.504 98.1826 184.918 101.14 191.961 108.565C193.832 110.538 197.578 106.909 196.86 104.901C189.594 84.9326 178.653 74.9443 167.715 74.9443Z" fill="#111111"/>
</svg>
